<?xml version="1.0" encoding="utf-8"?>
<!-- Generator: Adobe Illustrator 28.0.0, SVG Export Plug-In . SVG Version: 6.00 Build 0)  -->
<svg version="1.1" id="Layer_1" xmlns="http://www.w3.org/2000/svg" xmlns:xlink="http://www.w3.org/1999/xlink" x="0px" y="0px"
	 viewBox="0 0 2154.5 861.13" style="enable-background:new 0 0 2154.5 861.13;" xml:space="preserve">
<style type="text/css">
	.st0{fill:#FFFFFF;}
	.st1{fill:#055454;}
	.st2{fill:#043332;}
	.st3{fill:#FCFCFC;}
</style>
<g>
	<g>
		<polygon class="st0" points="-4875.36,948.75 361.24,948.75 210.7,2271.45 -4723.74,2271.45 		"/>
	</g>
	<g>
		<g>
			<path class="st0" d="M-5373.42,2787.32c70.86-144.75,128.91-288.25,208.33-418.73c83.22-136.73,83.55-241.8-31.71-365.29
				c-124.18-133.05-223.35-289.44-340.39-444.88c202.01,0,396.25,0,599.85,0c39.98,287.96,80.36,578.81,121.73,876.84
				c1703.55,0,3403.06,0,5113.34,0c41.03-294.16,81.86-586.83,122.91-881.07c201.57,0,394.84,0,602.44,0
				c-142.41,188.63-276.12,369.14-414.09,546.33c-39.37,50.56-49.57,88.89-16.72,150.83C684.2,2424.68,766.2,2603.29,851.72,2779
				c-175.91,0-344.97,11.62-511.8-2.68c-261.16-22.39-431.74,54.54-562.16,307.79c-275.96,535.83-740.3,892.93-1254.82,1186.2
				c-123.43,70.36-173.79,43.06-176.69-92.29c-5.09-237.55-3.2-475.3,0.2-712.9c0.3-20.88,29.25-49.77,51.77-60.49
				c120.97-57.62,203.77-143.14,229.38-286.95c-590.45,0-1175.37,0-1771.68,0c21.35,133.74,93.44,227.31,213.62,274.72
				c62.17,24.52,70.71,58.26,69.82,114.49c-3.02,191.8-1.53,383.67-3.33,575.51c-0.4,42.78-4.39,85.97-11.65,128.13
				c-13.8,80.14-51.27,100.3-128.41,72.72c-13.41-4.8-26.9-10.27-39.04-17.6c-487.99-294.65-923.61-646.02-1226.76-1139.37
				c-43.34-70.53-79.86-145.31-118.17-218.83c-40.88-78.44-102.14-118.06-192.85-117.32c-237.65,1.95-475.32,0.77-712.98,0.59
				C-5316.17,2790.68-5338.52,2788.85-5373.42,2787.32z M-3147.06,3037.64c594.75,0,1182.37,0,1772.99,0c0-106.23,0-206.88,0-307.57
				c-594.51,0-1182.11,0-1772.99,0C-3147.06,2833.31-3147.06,2929.93-3147.06,3037.64z"/>
		</g>
		<g>
			<path class="st0" d="M-2305.25,3429.18c33.58,0,61.49,0,92.6,0c2.66,13.02,6.74,23.68,6.75,34.34
				c0.47,369.15,0.36,738.3,0.99,1107.44c0.07,40.28-2.94,83.08-54.82,73.09c-21.09-4.06-50.17-43.86-50.36-67.6
				c-3-371.98-1.89-744-1.47-1116.01C-2311.54,3452.31-2308.38,3444.2-2305.25,3429.18z"/>
		</g>
		<g>
			<path class="st0" d="M-2538.54,4521.78c-80.31-8.25-105.95-46.36-104.66-124.87c4.79-291.55,1.95-583.23,1.97-874.86
				c0-28.18,0-56.36,0-90.19c36.77,0,66.75,0,102.69,0C-2538.54,3791.93-2538.54,4153.72-2538.54,4521.78z"/>
		</g>
		<g>
			<path class="st0" d="M-1979.92,3428.9c35.35,0,63.33,0,103.82,0c0,32.97,0,63.24,0,93.51c0.01,291.74-2.88,583.52,1.95,875.18
				c1.31,79-25.45,116.11-105.77,124.4C-1979.92,4158.95-1979.92,3797.59-1979.92,3428.9z"/>
		</g>
		<g>
			<path class="st1" d="M-3147.06,3037.64c0-107.71,0-204.33,0-307.57c590.87,0,1178.48,0,1772.99,0c0,100.7,0,201.35,0,307.57
				C-1964.69,3037.64-2552.31,3037.64-3147.06,3037.64z"/>
		</g>
	</g>
	<g>
		<g>
			<path class="st0" d="M-4376.47,823.17c0-413.72-2.22-808.57,1.43-1203.37c1.03-110.89,62.11-162.12,187.44-203.21
				c358.2-117.42,721.87-222.09,1070.55-363.42c276.84-112.21,535.55-269.63,800.32-410.7c42.83-22.82,71.18-28.69,114.75-1.31
				c567.03,356.34,1183.11,596.26,1829.11,763.89c196.06,50.87,235.71,101.11,235.81,306.16c0.15,332.15,0.04,664.3,0.04,996.46
				c0,31.31,0,62.61,0,107.45c-38.6,0-71.75,1.83-104.63-0.31c-168.24-10.95-337.46-14.95-504.3-36.87
				c-153.48-20.16-225.83-98.16-227.21-253.53c-1.7-191.21,17.5-382.61,27.7-573.92c4.7-88.05,9.49-176.09,15.31-284.08
				c-51.9,32.02-89.48,55.18-127.04,78.38c-377.14,232.91-754.86,464.89-1130.72,699.84c-50.85,31.78-88.01,32.77-139.4,0.58
				c-382.92-239.85-767.76-476.64-1152.07-714.27c-28.76-17.78-58.11-34.62-94.81-56.44c0,86.22-3.74,164.02,0.77,241.34
				c9.68,165.71,26.07,331.03,35.24,496.76c14.21,256.93-50.37,345.62-298.96,377.94C-4012.08,813.26-4190.05,812.75-4376.47,823.17
				z M-2253.32-1016.52c-7.09-3.87-14.17-7.73-21.26-11.6c-25.68,182.53-146.52,239.92-317.35,244.7
				c158.99,96.71,177.72,229,129.62,391.81c140.37-117.33,271.88-108.06,411.69-0.9c-58.42-166.98-23.99-294.43,141.68-391.06
				c-96.84-17.62-180.33-10.69-231.2-48.11C-2194.03-871.33-2216.91-953.13-2253.32-1016.52z M-2218.78,405.9
				c16.51,0.79,22.61,3.07,25.85,0.96c320.52-208.24,641.03-416.51,960.57-626.24c16.28-10.68,34.9-34.64,34.11-51.56
				c-3.34-72.05-13.58-143.78-22.87-230.14C-1559.99-193-1886.3,103.64-2218.78,405.9z M-2315.6,413.12
				c3.72-4.7,7.45-9.4,11.17-14.09c-326.64-296.7-653.27-593.4-991.28-900.43c-9.22,86.27-19.49,153.59-21.75,221.18
				c-0.67,20.08,15.99,48.75,33.44,60.25C-2962-7.75-2638.66,202.47-2315.6,413.12z M-2201.77,331.44c4.3,4.5,8.59,9.01,12.89,13.51
				c186.79-183.38,373.83-366.5,560.27-550.23c103.25-101.75,109.41-135.8,50.53-279.96
				C-1787.65-210.81-1994.71,60.32-2201.77,331.44z M-2350.79,371.13c12.59-12.64,25.18-25.28,37.78-37.92
				c-207.78-271.97-415.57-543.94-623.35-815.91c-10.47,3.07-20.94,6.14-31.41,9.21c6.13,69.07-13.98,160.74,22.78,203.42
				C-2754.93-49.43-2550.32,158.66-2350.79,371.13z"/>
		</g>
		<g>
			<path class="st1" d="M-2253.32-1016.52c36.42,63.39,59.29,145.2,113.18,184.84c50.87,37.42,134.36,30.49,231.2,48.11
				c-165.66,96.64-200.1,224.09-141.68,391.06c-139.81-107.16-271.32-116.43-411.69,0.9c48.09-162.8,29.37-295.1-129.62-391.81
				c170.83-4.79,291.67-62.17,317.35-244.7C-2267.5-1024.26-2260.41-1020.39-2253.32-1016.52z"/>
		</g>
		<g>
			<path class="st1" d="M-2218.78,405.9c332.48-302.26,658.79-598.91,997.67-906.99c9.28,86.36,19.52,158.09,22.87,230.14
				c0.78,16.93-17.83,40.88-34.11,51.56c-319.54,209.73-640.05,418-960.57,626.24C-2196.17,408.97-2202.27,406.69-2218.78,405.9z"/>
		</g>
		<g>
			<path class="st1" d="M-2315.6,413.12C-2638.66,202.47-2962-7.75-3284.02-219.98c-17.44-11.5-34.11-40.16-33.44-60.25
				c2.26-67.59,12.53-134.92,21.75-221.18c338.01,307.03,664.64,603.73,991.28,900.43C-2308.15,403.72-2311.88,408.42-2315.6,413.12
				z"/>
		</g>
		<g>
			<path class="st1" d="M-2201.77,331.44c207.06-271.13,414.11-542.25,623.69-816.68c58.88,144.15,52.72,178.21-50.53,279.96
				c-186.44,183.73-373.48,366.85-560.27,550.23C-2193.17,340.45-2197.47,335.94-2201.77,331.44z"/>
		</g>
		<g>
			<path class="st1" d="M-2350.79,371.13c-199.53-212.47-404.14-420.57-594.2-641.2c-36.76-42.68-16.66-134.35-22.78-203.42
				c10.47-3.07,20.94-6.14,31.41-9.21c207.78,271.97,415.57,543.94,623.35,815.91C-2325.6,345.86-2338.19,358.5-2350.79,371.13z"/>
		</g>
	</g>
	<g>
		<path class="st1" d="M-4056.15,1276.57h-143.25v388.44h-115.05v-388.44h-140.62v-88.83h398.92V1276.57z"/>
		<path class="st1" d="M-3711.65,1462.44h-180.94v114.07h213.72v88.5h-328.78v-477.27h329.43v88.83h-214.38v100.63h180.94V1462.44z"
			/>
		<path class="st1" d="M-3245.85,1503.41c-1.53,33.21-10.49,62.55-26.88,88.01c-16.38,25.46-39.39,45.19-69,59.17
			c-29.61,13.99-63.43,20.97-101.45,20.97c-62.72,0-112.1-20.43-148.16-61.29c-36.06-40.86-54.09-98.55-54.09-173.08v-23.6
			c0-46.76,8.14-87.69,24.42-122.76c16.28-35.08,39.72-62.17,70.31-81.29c30.59-19.12,65.99-28.68,106.2-28.68
			c57.9,0,104.45,15.24,139.64,45.73c35.19,30.48,55.18,72.49,59.99,126.04h-114.73c-0.87-29.06-8.19-49.93-21.96-62.61
			c-13.77-12.67-34.75-19.01-62.94-19.01c-28.63,0-49.61,10.71-62.94,32.12c-13.33,21.42-20.32,55.61-20.98,102.6v33.77
			c0,50.92,6.39,87.3,19.18,109.16c12.79,21.85,34.8,32.78,66.05,32.78c26.44,0,46.65-6.23,60.64-18.68
			c13.99-12.46,21.42-32.23,22.29-59.33H-3245.85z"/>
		<path class="st1" d="M-2792.5,1665.01h-114.4v-199.3h-169.47v199.3h-115.05v-477.27h115.05v189.46h169.47v-189.46h114.4V1665.01z"
			/>
		<path class="st1" d="M-2568.63,1187.75l106.53,332.05l106.2-332.05h151.44v477.27h-115.38v-111.45l11.15-228.15l-115.39,339.59
			h-76.04l-115.71-339.92l11.14,228.47v111.45h-115.05v-477.27H-2568.63z"/>
		<path class="st1" d="M-1854.37,1575.86h-157.66l-27.53,89.16h-122.92l175.04-477.27h108.18l176.35,477.27h-123.58
			L-1854.37,1575.86z M-1984.5,1487.02h102.6l-51.46-165.53L-1984.5,1487.02z"/>
		<path class="st1" d="M-1422,1538.15c0-16.82-5.96-29.93-17.87-39.33c-11.91-9.4-32.84-19.12-62.77-29.18
			c-29.94-10.04-54.41-19.77-73.43-29.17c-61.85-30.37-92.76-72.12-92.76-125.21c0-26.44,7.7-49.78,23.1-69.99
			c15.41-20.21,37.21-35.95,65.4-47.2c28.19-11.26,59.88-16.89,95.06-16.89c34.3,0,65.07,6.12,92.27,18.36
			c27.21,12.24,48.36,29.67,63.43,52.28c15.08,22.62,22.62,48.47,22.62,77.53h-114.73c0-19.45-5.96-34.53-17.87-45.24
			c-11.91-10.71-28.02-16.07-48.35-16.07c-20.54,0-36.76,4.54-48.68,13.61s-17.86,20.6-17.86,34.58c0,12.24,6.55,23.33,19.67,33.27
			c13.11,9.94,36.17,20.21,69.16,30.81c33,10.6,60.09,22.02,81.29,34.25c51.57,29.72,77.36,70.7,77.36,122.92
			c0,41.75-15.74,74.52-47.21,98.34c-31.46,23.82-74.63,35.72-129.48,35.72c-38.68,0-73.7-6.93-105.05-20.81
			c-31.36-13.87-54.96-32.89-70.81-57.03c-15.85-24.15-23.76-51.96-23.76-83.43h115.38c0,25.57,6.6,44.41,19.83,56.55
			c13.21,12.13,34.68,18.2,64.41,18.2c19.01,0,34.04-4.1,45.08-12.3C-1427.52,1564.55-1422,1553.02-1422,1538.15z"/>
		<path class="st1" d="M-873.27,1276.57h-143.25v388.44h-115.05v-388.44h-140.62v-88.83h398.92V1276.57z"/>
		<path class="st1" d="M-528.77,1462.44h-180.94v114.07h213.72v88.5h-328.78v-477.27h329.43v88.83h-214.38v100.63h180.94V1462.44z"
			/>
		<path class="st1" d="M-271.78,1496.2h-62.28v168.81h-115.05v-477.27h187.83c56.6,0,100.84,12.55,132.76,37.65
			c31.91,25.11,47.85,60.58,47.85,106.42c0,33.18-6.72,60.69-20.16,82.52c-13.44,21.83-34.47,39.51-63.1,53.05l99.65,192.7v4.92
			h-123.25L-271.78,1496.2z M-334.06,1407.69h72.77c21.85,0,38.3-5.75,49.33-17.25c11.03-11.5,16.55-27.55,16.55-48.15
			c0-20.59-5.57-36.75-16.71-48.47c-11.15-11.72-27.53-17.58-49.17-17.58h-72.77V1407.69z"/>
	</g>
	<g>
		<path class="st1" d="M-3036.71,2000.03l-38.24,103.99h-23.63l110.43-300.79h27.5l115.16,300.79h-25.35l-39.1-103.99H-3036.71z
			 M-2917.68,1978.55c-33.52-89.37-50.71-132.35-56.72-152.55h-0.43c-7.31,22.78-26.65,76.06-53.72,152.55H-2917.68z"/>
		<path class="st1" d="M-2640.97,2040.85c-10.31,37.81-35.24,68.32-83.36,68.32c-53.71,0-91.96-39.97-91.96-111.72
			c0-58.87,31.37-113.44,94.53-113.44c54.57,0,76.92,38.68,80.78,68.75h-21.91c-6.44-24.93-22.77-48.56-59.3-48.56
			c-45.55,0-71.33,38.68-71.33,92.39c0,51.13,24.06,92.39,69.18,92.39c31.37,0,50.28-15.9,61.45-48.12H-2640.97z"/>
		<path class="st1" d="M-2442.03,2063.2c0,18.91,1.72,33.94,3.01,40.82h-20.63c-1.72-5.16-3.01-14.61-3.87-33.09
			c-7.31,15.9-26.21,38.25-70.47,38.25c-49.84,0-71.33-32.23-71.33-64.46c0-47.27,36.52-68.75,100.98-68.75c18.05,0,32.23,0,40.82,0
			v-21.91c0-21.49-6.44-50.28-55.43-50.28c-43.4,0-49.85,22.78-54.57,40.4H-2595c2.58-23.63,17.19-60.16,76.49-60.16
			c48.99,0,76.49,20.62,76.49,67.9V2063.2z M-2463.09,1994.44c-8.16,0-27.93,0-42.11,0c-47.69,0-77.35,12.47-77.35,49.41
			c0,27.07,19.34,45.56,49.42,45.56c61.45,0,70.04-40.82,70.04-87.23V1994.44z"/>
		<path class="st1" d="M-2205.28,1787.33v254.81c0,20.63,0,40.4,0.44,61.88h-20.63c-0.86-5.16-1.29-25.35-1.29-36.09
			c-10.74,26.21-34.8,41.25-72.18,41.25c-55.87,0-89.38-45.56-89.38-110c0-66.18,36.53-115.16,94.97-115.16
			c42.96,0,60.15,18.47,66.6,32.22v-128.91H-2205.28z M-2365.55,1998.31c0,58.87,30.5,90.67,67.46,90.67
			c56.72,0,72.19-39.1,72.19-97.54c0-55.44-13.32-87.23-68.32-87.23C-2336.76,1904.21-2365.55,1938.16-2365.55,1998.31z"/>
		<path class="st1" d="M-2130.09,1999.18c0.44,55.43,28.36,89.8,69.62,89.8c40.39,0,54.14-22.77,61.87-40.39h21.91
			c-9.02,28.36-31.8,60.59-84.65,60.59c-65.31,0-90.67-56.29-90.67-110.87c0-61.45,30.51-114.3,93.25-114.3
			c66.17,0,87.23,57.15,87.23,97.55c0,6.02,0,12.03-0.43,17.62H-2130.09z M-1993.87,1980.27c-0.44-42.54-23.63-76.06-65.75-76.06
			c-44.25,0-64.46,30.94-69.18,76.06H-1993.87z"/>
		<path class="st1" d="M-1919.11,1944.6c0-18.48,0-38.68-0.43-55.43h21.05c0.44,7.3,1.29,25.78,0.86,38.24
			c9.02-21.49,28.79-43.4,64.46-43.4c30.08,0,53.71,15.04,62.3,42.54c10.75-22.35,32.23-42.54,70.04-42.54
			c33.09,0,67.46,18.91,67.46,78.64v141.37h-21.49v-138.8c0-28.78-10.31-60.15-50.27-60.15c-41.68,0-60.59,33.52-60.59,75.2v123.75
			h-21.06v-138.36c0-31.37-9.45-60.59-48.99-60.59c-41.68,0-61.87,36.96-61.87,80.78v118.17h-21.49V1944.6z"/>
		<path class="st1" d="M-1570.2,1889.17c43.4,122.89,62.31,173.6,69.62,196.8h0.43c8.59-26.22,25.78-76.06,67.46-196.8h22.34
			l-80.78,227.31c-22.77,63.6-38.24,77.78-76.92,77.78c-7.74,0-12.89-0.43-19.77-1.29v-21.49c6.44,0.86,12.46,1.29,19.34,1.29
			c30.94,0,40.82-15.04,56.72-59.3l-82.08-224.3H-1570.2z"/>
	</g>
	<g>
		<g>
			<rect x="-1272.13" y="1984.39" class="st2" width="1214.42" height="34.36"/>
		</g>
		<g>
			<rect x="-4456.41" y="1984.39" class="st2" width="1214.42" height="34.36"/>
		</g>
	</g>
	<g>
		<path class="st3" d="M1048.62,674.5H808.89v650.08H616.33V674.5H380.99V525.84h667.63V674.5z"/>
		<path class="st3" d="M1625.19,985.55h-302.82v190.91h357.68v148.12h-550.24V525.84h551.34V674.5h-358.78v168.42h302.82V985.55z"/>
		<path class="st3" d="M2404.74,1054.13c-2.57,55.6-17.56,104.69-44.98,147.3c-27.43,42.61-65.93,75.62-115.48,99.02
			c-49.56,23.41-106.14,35.11-169.79,35.11c-104.97,0-187.62-34.2-247.96-102.59c-60.35-68.38-90.51-164.94-90.51-289.66v-39.5
			c0-78.26,13.62-146.75,40.87-205.44c27.24-58.7,66.47-104.05,117.68-136.05c51.19-32,110.44-48.01,177.74-48.01
			c96.91,0,174.81,25.51,233.7,76.53c58.88,51.02,92.34,121.34,100.39,210.94h-192c-1.47-48.64-13.72-83.57-36.75-104.79
			c-23.05-21.21-58.16-31.81-105.33-31.81c-47.92,0-83.03,17.92-105.33,53.76c-22.32,35.85-34.01,93.08-35.11,171.71v56.5
			c0,85.22,10.7,146.11,32.09,182.68c21.4,36.57,58.24,54.86,110.54,54.86c44.25,0,78.08-10.43,101.49-31.28
			c23.41-20.84,35.84-53.94,37.31-99.29H2404.74z"/>
		<path class="st3" d="M3163.45,1324.58h-191.46V991.04h-283.62v333.54h-192.56V525.84h192.56v317.08h283.62V525.84h191.46V1324.58z
			"/>
		<path class="st3" d="M3538.13,525.84l178.29,555.72l177.74-555.72h253.46v798.74h-193.11v-186.53l18.66-381.82l-193.11,568.34
			h-127.27l-193.66-568.89l18.66,382.36v186.53h-192.56V525.84H3538.13z"/>
		<path class="st3" d="M4733.51,1175.36h-263.87l-46.08,149.22h-205.72l292.95-798.74h181.04l295.14,798.74h-206.82L4733.51,1175.36
			z M4515.72,1026.69h171.71l-86.13-277.03L4515.72,1026.69z"/>
		<path class="st3" d="M5457.1,1112.27c0-28.16-9.98-50.1-29.9-65.83c-19.94-15.71-54.95-32-105.05-48.82
			c-50.11-16.82-91.07-33.1-122.89-48.83c-103.5-50.83-155.25-120.69-155.25-209.56c0-44.25,12.89-83.29,38.68-117.13
			c25.78-33.82,62.27-60.15,109.44-79c47.18-18.83,100.21-28.25,159.09-28.25c57.42,0,108.9,10.24,154.44,30.72
			c45.53,20.48,80.92,49.64,106.14,87.49c25.24,37.85,37.85,81.11,37.85,129.74h-192c0-32.55-9.97-57.78-29.9-75.71
			c-19.93-17.91-46.91-26.88-80.92-26.88c-34.38,0-61.54,7.59-81.46,22.77c-19.94,15.18-29.9,34.47-29.9,57.87
			c0,20.49,10.97,39.04,32.91,55.68c21.95,16.65,60.53,33.84,115.76,51.57c55.22,17.74,100.57,36.85,136.04,57.33
			c86.31,49.74,129.47,118.32,129.47,205.72c0,69.86-26.33,124.72-79,164.58c-52.66,39.87-124.9,59.8-216.69,59.8
			c-64.73,0-123.34-11.61-175.82-34.83c-52.48-23.22-91.98-55.04-118.49-95.46c-26.52-40.41-39.77-86.96-39.77-139.62h193.1
			c0,42.79,11.06,74.33,33.19,94.63c22.12,20.29,58.06,30.45,107.8,30.45c31.82,0,56.96-6.85,75.43-20.57
			S5457.1,1137.15,5457.1,1112.27z"/>
		<path class="st3" d="M6375.44,674.5h-239.73v650.08h-192.56V674.5h-235.34V525.84h667.63V674.5z"/>
		<path class="st3" d="M6952.01,985.55h-302.82v190.91h357.68v148.12h-550.24V525.84h551.34V674.5h-358.78v168.42h302.82V985.55z"/>
		<path class="st3" d="M7382.11,1042.05h-104.23v282.53h-192.56V525.84h314.34c94.72,0,168.78,21.01,222.18,63.01
			c53.39,42.02,80.09,101.39,80.09,178.1c0,55.54-11.25,101.57-33.74,138.1c-22.49,36.54-57.69,66.13-105.6,88.78l166.77,322.51
			v8.24H7523.1L7382.11,1042.05z M7277.88,893.94h121.78c36.57,0,64.1-9.61,82.56-28.87s27.71-46.11,27.71-80.57
			c0-34.46-9.33-61.5-27.98-81.12c-18.66-19.61-46.08-29.42-82.29-29.42h-121.78V893.94z"/>
	</g>
	<g>
		<g>
			<path class="st3" d="M2377.41,1995.63l-64.01,174.03h-39.55l184.82-503.41h46.03l192.72,503.41H2655l-65.46-174.03H2377.41z
				 M2576.61,1959.67c-56.09-149.59-84.87-221.5-94.94-255.29h-0.7c-12.23,38.11-44.6,127.29-89.9,255.29H2576.61z"/>
			<path class="st3" d="M3039.72,2063.93c-17.27,63.29-58.96,114.35-139.52,114.35c-89.89,0-153.9-66.88-153.9-186.97
				c0-98.53,52.5-189.86,158.21-189.86c91.35,0,128.73,64.72,135.21,115.05h-36.68c-10.79-41.71-38.11-81.26-99.23-81.26
				c-76.24,0-119.38,64.72-119.38,154.62c0,85.57,40.27,154.62,115.78,154.62c52.5,0,84.15-26.61,102.84-80.56H3039.72z"/>
			<path class="st3" d="M3372.66,2101.34c0,31.65,2.87,56.81,5.03,68.32h-34.51c-2.89-8.64-5.03-24.45-6.48-55.37
				c-12.23,26.59-43.86,64-117.94,64c-83.43,0-119.38-53.93-119.38-107.87c0-79.1,61.13-115.05,169-115.05c30.2,0,53.94,0,68.32,0
				v-36.68c0-35.96-10.79-84.15-92.77-84.15c-72.64,0-83.43,38.12-91.33,67.6h-35.96c4.31-39.55,28.76-100.67,128.01-100.67
				c81.98,0,128.01,34.51,128.01,113.63V2101.34z M3337.43,1986.28c-13.66,0-46.75,0-70.47,0c-79.83,0-129.45,20.86-129.45,82.69
				c0,45.32,32.37,76.24,82.7,76.24c102.84,0,117.22-68.32,117.22-146V1986.28z"/>
			<path class="st3" d="M3768.89,1639.64v426.46c0,34.51,0,67.6,0.72,103.56h-34.51c-1.44-8.64-2.16-42.43-2.16-60.4
				c-17.97,43.86-58.24,69.03-120.81,69.03c-93.49,0-149.59-76.23-149.59-184.1c0-110.74,61.13-192.72,158.93-192.72
				c71.92,0,100.69,30.92,111.46,53.93v-215.75H3768.89z M3500.66,1992.74c0,98.53,51.06,151.75,112.91,151.75
				c94.92,0,120.81-65.46,120.81-163.24c0-92.77-22.28-146-114.33-146C3548.83,1835.25,3500.66,1892.07,3500.66,1992.74z"/>
			<path class="st3" d="M3894.73,1994.18c0.72,92.77,47.45,150.31,116.5,150.31c67.6,0,90.61-38.12,103.56-67.6h36.66
				c-15.1,47.47-53.21,101.4-141.67,101.4c-109.3,0-151.73-94.21-151.73-185.54c0-102.84,51.06-191.28,156.05-191.28
				c110.76,0,146,95.64,146,163.24c0,10.07,0,20.13-0.72,29.48H3894.73z M4122.69,1962.54c-0.72-71.19-39.55-127.29-110.02-127.29
				c-74.08,0-107.87,51.78-115.79,127.29H4122.69z"/>
			<path class="st3" d="M4247.81,1902.85c0-30.92,0-64.72-0.72-92.77h35.24c0.72,12.23,2.16,43.16,1.44,64.01
				c15.1-35.96,48.19-72.64,107.87-72.64c50.34,0,89.9,25.17,104.28,71.19c17.97-37.4,53.93-71.19,117.22-71.19
				c55.37,0,112.91,31.65,112.91,131.6v236.6h-35.96v-232.29c0-48.17-17.27-100.67-84.15-100.67c-69.75,0-101.4,56.09-101.4,125.84
				v207.12h-35.24v-231.57c0-52.5-15.82-101.4-81.98-101.4c-69.75,0-103.56,61.85-103.56,135.19v197.78h-35.96V1902.85z"/>
			<path class="st3" d="M4831.74,1810.08c72.62,205.68,104.27,290.53,116.5,329.37h0.72c14.38-43.88,43.14-127.29,112.91-329.37
				h37.38l-135.19,380.43c-38.12,106.43-64.01,130.16-128.73,130.16c-12.95,0-21.58-0.72-33.09-2.15v-35.96
				c10.79,1.43,20.86,2.15,32.37,2.15c51.78,0,68.32-25.17,94.92-99.23l-137.35-375.4H4831.74z"/>
		</g>
		<g>
			<g>
				<rect x="5330.6" y="1981.03" class="st3" width="1087.8" height="34.36"/>
			</g>
			<g>
				<rect x="1023.08" y="1981.03" class="st3" width="1010.79" height="34.36"/>
			</g>
		</g>
	</g>
</g>
</svg>
