<?xml version="1.0" encoding="utf-8"?>
<!-- Generator: Adobe Illustrator 28.0.0, SVG Export Plug-In . SVG Version: 6.00 Build 0)  -->
<svg version="1.1" id="Layer_2_00000018213712314226152990000015733802731845106080_"
	 xmlns="http://www.w3.org/2000/svg" xmlns:xlink="http://www.w3.org/1999/xlink" x="0px" y="0px" viewBox="0 0 536.6 102"
	 style="enable-background:new 0 0 536.6 102;" xml:space="preserve">
<style type="text/css">
	.st0{fill:#FFFFFF;}
	.st1{fill:#055454;}
	.st2{fill:#043332;}
	.st3{fill:#FCFCFC;}
</style>
<g>
	<g>
		<polygon class="st0" points="19.6,40.2 107.2,40.2 104.7,62.3 22.1,62.3 		"/>
	</g>
	<g>
		<g>
			<path class="st0" d="M11.3,70.9c1.2-2.4,2.2-4.8,3.5-7c1.4-2.3,1.4-4-0.5-6.1c-2.1-2.2-3.7-4.8-5.7-7.4c3.4,0,6.6,0,10,0
				c0.7,4.8,1.3,9.7,2,14.7c28.5,0,56.9,0,85.5,0c0.7-4.9,1.4-9.8,2.1-14.7c3.4,0,6.6,0,10.1,0c-2.4,3.2-4.6,6.2-6.9,9.1
				c-0.7,0.8-0.8,1.5-0.3,2.5c1.5,2.9,2.9,5.9,4.3,8.8c-2.9,0-5.8,0.2-8.6,0c-4.4-0.4-7.2,0.9-9.4,5.1c-4.6,9-12.4,14.9-21,19.8
				c-2.1,1.2-2.9,0.7-3-1.5c-0.1-4-0.1-8,0-11.9c0-0.3,0.5-0.8,0.9-1c2-1,3.4-2.4,3.8-4.8c-9.9,0-19.7,0-29.6,0
				c0.4,2.2,1.6,3.8,3.6,4.6c1,0.4,1.2,1,1.2,1.9c-0.1,3.2,0,6.4-0.1,9.6c0,0.7-0.1,1.4-0.2,2.1c-0.2,1.3-0.9,1.7-2.1,1.2
				c-0.2-0.1-0.5-0.2-0.7-0.3c-8.2-4.9-15.5-10.8-20.5-19.1c-0.7-1.2-1.3-2.4-2-3.7c-0.7-1.3-1.7-2-3.2-2c-4,0-8,0-11.9,0
				C12.2,71,11.8,70.9,11.3,70.9z M48.5,75.1c10,0,19.8,0,29.7,0c0-1.8,0-3.5,0-5.1c-9.9,0-19.8,0-29.7,0
				C48.5,71.7,48.5,73.3,48.5,75.1z"/>
		</g>
		<g>
			<path class="st0" d="M62.6,81.7c0.6,0,1,0,1.5,0c0,0.2,0.1,0.4,0.1,0.6c0,6.2,0,12.4,0,18.5c0,0.7,0,1.4-0.9,1.2
				c-0.4-0.1-0.8-0.7-0.8-1.1c-0.1-6.2,0-12.4,0-18.7C62.5,82,62.5,81.9,62.6,81.7z"/>
		</g>
		<g>
			<path class="st0" d="M58.7,99.9c-1.3-0.1-1.8-0.8-1.8-2.1c0.1-4.9,0-9.8,0-14.6c0-0.5,0-0.9,0-1.5c0.6,0,1.1,0,1.7,0
				C58.7,87.7,58.7,93.8,58.7,99.9z"/>
		</g>
		<g>
			<path class="st0" d="M68,81.6c0.6,0,1.1,0,1.7,0c0,0.6,0,1.1,0,1.6c0,4.9,0,9.8,0,14.6c0,1.3-0.4,1.9-1.8,2.1
				C68,93.9,68,87.8,68,81.6z"/>
		</g>
		<g>
			<path class="st1" d="M48.5,75.1c0-1.8,0-3.4,0-5.1c9.9,0,19.7,0,29.7,0c0,1.7,0,3.4,0,5.1C68.3,75.1,58.5,75.1,48.5,75.1z"/>
		</g>
	</g>
	<g>
		<g>
			<path class="st0" d="M27.9,38.1c0-6.9,0-13.5,0-20.1c0-1.9,1-2.7,3.1-3.4c6-2,12.1-3.7,17.9-6.1c4.6-1.9,9-4.5,13.4-6.9
				c0.7-0.4,1.2-0.5,1.9,0c9.5,6,19.8,10,30.6,12.8c3.3,0.9,3.9,1.7,3.9,5.1c0,5.6,0,11.1,0,16.7c0,0.5,0,1,0,1.8
				c-0.6,0-1.2,0-1.8,0c-2.8-0.2-5.6-0.3-8.4-0.6c-2.6-0.3-3.8-1.6-3.8-4.2c0-3.2,0.3-6.4,0.5-9.6c0.1-1.5,0.2-2.9,0.3-4.8
				c-0.9,0.5-1.5,0.9-2.1,1.3c-6.3,3.9-12.6,7.8-18.9,11.7c-0.9,0.5-1.5,0.5-2.3,0c-6.4-4-12.8-8-19.3-12c-0.5-0.3-1-0.6-1.6-0.9
				c0,1.4-0.1,2.7,0,4c0.2,2.8,0.4,5.5,0.6,8.3c0.2,4.3-0.8,5.8-5,6.3C34,37.9,31.1,37.9,27.9,38.1z M63.5,7.3
				c-0.1-0.1-0.2-0.1-0.4-0.2c-0.4,3.1-2.5,4-5.3,4.1c2.7,1.6,3,3.8,2.2,6.6c2.3-2,4.5-1.8,6.9,0c-1-2.8-0.4-4.9,2.4-6.5
				c-1.6-0.3-3-0.2-3.9-0.8C64.5,9.7,64.1,8.3,63.5,7.3z M64,31.1c0.3,0,0.4,0.1,0.4,0c5.4-3.5,10.7-7,16.1-10.5
				c0.3-0.2,0.6-0.6,0.6-0.9c-0.1-1.2-0.2-2.4-0.4-3.9C75.1,21,69.6,26,64,31.1z M62.4,31.2c0.1-0.1,0.1-0.2,0.2-0.2
				C57.1,26,51.7,21,46,15.9c-0.2,1.4-0.3,2.6-0.4,3.7c0,0.3,0.3,0.8,0.6,1C51.6,24.1,57,27.7,62.4,31.2z M64.3,29.8
				c0.1,0.1,0.1,0.2,0.2,0.2c3.1-3.1,6.3-6.1,9.4-9.2c1.7-1.7,1.8-2.3,0.8-4.7C71.3,20.8,67.8,25.3,64.3,29.8z M61.8,30.5
				c0.2-0.2,0.4-0.4,0.6-0.6c-3.5-4.6-7-9.1-10.4-13.7c-0.2,0.1-0.4,0.1-0.5,0.2c0.1,1.2-0.2,2.7,0.4,3.4
				C55.1,23.5,58.5,26.9,61.8,30.5z"/>
		</g>
		<g>
			<path class="st1" d="M63.5,7.3c0.6,1.1,1,2.4,1.9,3.1c0.9,0.6,2.2,0.5,3.9,0.8c-2.8,1.6-3.3,3.7-2.4,6.5c-2.3-1.8-4.5-1.9-6.9,0
				c0.8-2.7,0.5-4.9-2.2-6.6c2.9-0.1,4.9-1,5.3-4.1C63.2,7.1,63.3,7.2,63.5,7.3z"/>
		</g>
		<g>
			<path class="st1" d="M64,31.1c5.6-5.1,11-10,16.7-15.2c0.2,1.4,0.3,2.6,0.4,3.9c0,0.3-0.3,0.7-0.6,0.9c-5.3,3.5-10.7,7-16.1,10.5
				C64.4,31.1,64.3,31.1,64,31.1z"/>
		</g>
		<g>
			<path class="st1" d="M62.4,31.2c-5.4-3.5-10.8-7-16.2-10.6c-0.3-0.2-0.6-0.7-0.6-1c0-1.1,0.2-2.3,0.4-3.7
				C51.7,21,57.1,26,62.6,31C62.5,31,62.5,31.1,62.4,31.2z"/>
		</g>
		<g>
			<path class="st1" d="M64.3,29.8c3.5-4.5,6.9-9.1,10.4-13.7c1,2.4,0.9,3-0.8,4.7c-3.1,3.1-6.2,6.1-9.4,9.2
				C64.5,30,64.4,29.9,64.3,29.8z"/>
		</g>
		<g>
			<path class="st1" d="M61.8,30.5c-3.3-3.6-6.8-7-9.9-10.7c-0.6-0.7-0.3-2.2-0.4-3.4c0.2-0.1,0.4-0.1,0.5-0.2
				c3.5,4.6,7,9.1,10.4,13.7C62.3,30.1,62,30.3,61.8,30.5z"/>
		</g>
	</g>
	<g>
		<path class="st1" d="M33.3,45.6h-2.4v6.5H29v-6.5h-2.4v-1.5h6.7V45.6z"/>
		<path class="st1" d="M39.1,48.7h-3v1.9h3.6v1.5h-5.5v-8h5.5v1.5H36v1.7h3V48.7z"/>
		<path class="st1" d="M46.9,49.4c0,0.6-0.2,1-0.4,1.5c-0.3,0.4-0.7,0.8-1.2,1c-0.5,0.2-1.1,0.4-1.7,0.4c-1,0-1.9-0.3-2.5-1
			c-0.6-0.7-0.9-1.6-0.9-2.9v-0.4c0-0.8,0.1-1.5,0.4-2.1c0.3-0.6,0.7-1,1.2-1.4c0.5-0.3,1.1-0.5,1.8-0.5c1,0,1.7,0.3,2.3,0.8
			c0.6,0.5,0.9,1.2,1,2.1H45c0-0.5-0.1-0.8-0.4-1c-0.2-0.2-0.6-0.3-1.1-0.3c-0.5,0-0.8,0.2-1.1,0.5c-0.2,0.4-0.3,0.9-0.4,1.7v0.6
			c0,0.9,0.1,1.5,0.3,1.8c0.2,0.4,0.6,0.5,1.1,0.5c0.4,0,0.8-0.1,1-0.3c0.2-0.2,0.4-0.5,0.4-1H46.9z"/>
		<path class="st1" d="M54.4,52.1h-1.9v-3.3h-2.8v3.3h-1.9v-8h1.9v3.2h2.8v-3.2h1.9V52.1z"/>
		<path class="st1" d="M58.2,44.1l1.8,5.6l1.8-5.6h2.5v8h-1.9v-1.9l0.2-3.8l-1.9,5.7h-1.3l-1.9-5.7l0.2,3.8v1.9h-1.9v-8H58.2z"/>
		<path class="st1" d="M70.1,50.6h-2.6L67,52.1H65l2.9-8h1.8l3,8h-2.1L70.1,50.6z M68,49.2h1.7l-0.9-2.8L68,49.2z"/>
		<path class="st1" d="M77.4,50c0-0.3-0.1-0.5-0.3-0.7c-0.2-0.2-0.5-0.3-1.1-0.5c-0.5-0.2-0.9-0.3-1.2-0.5c-1-0.5-1.6-1.2-1.6-2.1
			c0-0.4,0.1-0.8,0.4-1.2c0.3-0.3,0.6-0.6,1.1-0.8c0.5-0.2,1-0.3,1.6-0.3c0.6,0,1.1,0.1,1.5,0.3c0.5,0.2,0.8,0.5,1.1,0.9
			c0.3,0.4,0.4,0.8,0.4,1.3h-1.9c0-0.3-0.1-0.6-0.3-0.8c-0.2-0.2-0.5-0.3-0.8-0.3c-0.3,0-0.6,0.1-0.8,0.2c-0.2,0.2-0.3,0.3-0.3,0.6
			c0,0.2,0.1,0.4,0.3,0.6s0.6,0.3,1.2,0.5c0.6,0.2,1,0.4,1.4,0.6c0.9,0.5,1.3,1.2,1.3,2.1c0,0.7-0.3,1.2-0.8,1.6
			c-0.5,0.4-1.2,0.6-2.2,0.6c-0.6,0-1.2-0.1-1.8-0.3c-0.5-0.2-0.9-0.6-1.2-1S73,50.1,73,49.5h1.9c0,0.4,0.1,0.7,0.3,0.9
			c0.2,0.2,0.6,0.3,1.1,0.3c0.3,0,0.6-0.1,0.8-0.2C77.3,50.5,77.4,50.3,77.4,50z"/>
		<path class="st1" d="M86.5,45.6h-2.4v6.5h-1.9v-6.5h-2.4v-1.5h6.7V45.6z"/>
		<path class="st1" d="M92.3,48.7h-3v1.9h3.6v1.5h-5.5v-8h5.5v1.5h-3.6v1.7h3V48.7z"/>
		<path class="st1" d="M96.6,49.3h-1v2.8h-1.9v-8h3.1c0.9,0,1.7,0.2,2.2,0.6c0.5,0.4,0.8,1,0.8,1.8c0,0.6-0.1,1-0.3,1.4
			c-0.2,0.4-0.6,0.7-1.1,0.9l1.7,3.2v0.1H98L96.6,49.3z M95.6,47.8h1.2c0.4,0,0.6-0.1,0.8-0.3c0.2-0.2,0.3-0.5,0.3-0.8
			c0-0.3-0.1-0.6-0.3-0.8c-0.2-0.2-0.5-0.3-0.8-0.3h-1.2V47.8z"/>
	</g>
	<g>
		<path class="st1" d="M50.4,57.7l-0.6,1.7h-0.4l1.8-5h0.5l1.9,5h-0.4l-0.7-1.7H50.4z M52.3,57.4c-0.6-1.5-0.8-2.2-0.9-2.6h0
			c-0.1,0.4-0.4,1.3-0.9,2.6H52.3z"/>
		<path class="st1" d="M57,58.4c-0.2,0.6-0.6,1.1-1.4,1.1c-0.9,0-1.5-0.7-1.5-1.9c0-1,0.5-1.9,1.6-1.9c0.9,0,1.3,0.6,1.4,1.2h-0.4
			c-0.1-0.4-0.4-0.8-1-0.8c-0.8,0-1.2,0.6-1.2,1.5c0,0.9,0.4,1.5,1.2,1.5c0.5,0,0.8-0.3,1-0.8H57z"/>
		<path class="st1" d="M60.3,58.8c0,0.3,0,0.6,0.1,0.7H60c0-0.1-0.1-0.2-0.1-0.6c-0.1,0.3-0.4,0.6-1.2,0.6c-0.8,0-1.2-0.5-1.2-1.1
			c0-0.8,0.6-1.2,1.7-1.2c0.3,0,0.5,0,0.7,0V57c0-0.4-0.1-0.8-0.9-0.8c-0.7,0-0.8,0.4-0.9,0.7h-0.4c0-0.4,0.3-1,1.3-1
			c0.8,0,1.3,0.3,1.3,1.1V58.8z M60,57.6c-0.1,0-0.5,0-0.7,0c-0.8,0-1.3,0.2-1.3,0.8c0,0.5,0.3,0.8,0.8,0.8c1,0,1.2-0.7,1.2-1.5
			V57.6z"/>
		<path class="st1" d="M64.3,54.2v4.3c0,0.3,0,0.7,0,1h-0.3c0-0.1,0-0.4,0-0.6c-0.2,0.4-0.6,0.7-1.2,0.7c-0.9,0-1.5-0.8-1.5-1.8
			c0-1.1,0.6-1.9,1.6-1.9c0.7,0,1,0.3,1.1,0.5v-2.2H64.3z M61.6,57.7c0,1,0.5,1.5,1.1,1.5c0.9,0,1.2-0.7,1.2-1.6
			c0-0.9-0.2-1.5-1.1-1.5C62.1,56.1,61.6,56.7,61.6,57.7z"/>
		<path class="st1" d="M65.5,57.7c0,0.9,0.5,1.5,1.2,1.5c0.7,0,0.9-0.4,1-0.7h0.4c-0.2,0.5-0.5,1-1.4,1c-1.1,0-1.5-0.9-1.5-1.9
			c0-1,0.5-1.9,1.6-1.9c1.1,0,1.5,1,1.5,1.6c0,0.1,0,0.2,0,0.3H65.5z M67.8,57.4c0-0.7-0.4-1.3-1.1-1.3c-0.7,0-1.1,0.5-1.2,1.3H67.8
			z"/>
		<path class="st1" d="M69.1,56.8c0-0.3,0-0.6,0-0.9h0.4c0,0.1,0,0.4,0,0.6c0.2-0.4,0.5-0.7,1.1-0.7c0.5,0,0.9,0.3,1,0.7
			c0.2-0.4,0.5-0.7,1.2-0.7c0.6,0,1.1,0.3,1.1,1.3v2.4h-0.4v-2.3c0-0.5-0.2-1-0.8-1c-0.7,0-1,0.6-1,1.3v2.1h-0.4v-2.3
			c0-0.5-0.2-1-0.8-1c-0.7,0-1,0.6-1,1.4v2h-0.4V56.8z"/>
		<path class="st1" d="M74.9,55.9c0.7,2.1,1,2.9,1.2,3.3h0c0.1-0.4,0.4-1.3,1.1-3.3h0.4l-1.4,3.8c-0.4,1.1-0.6,1.3-1.3,1.3
			c-0.1,0-0.2,0-0.3,0v-0.4c0.1,0,0.2,0,0.3,0c0.5,0,0.7-0.3,0.9-1l-1.4-3.8H74.9z"/>
	</g>
	<g>
		<g>
			<rect x="79.9" y="57.5" class="st2" width="20.3" height="0.6"/>
		</g>
		<g>
			<rect x="26.6" y="57.5" class="st2" width="20.3" height="0.6"/>
		</g>
	</g>
	<g>
		<path class="st3" d="M125.4,28.2H119v17.3h-5.1V28.2h-6.3v-4h17.8V28.2z"/>
		<path class="st3" d="M140.7,36.5h-8.1v5.1h9.5v4h-14.7V24.2h14.7v4h-9.6v4.5h8.1V36.5z"/>
		<path class="st3" d="M161.5,38.3c-0.1,1.5-0.5,2.8-1.2,3.9c-0.7,1.1-1.8,2-3.1,2.6c-1.3,0.6-2.8,0.9-4.5,0.9c-2.8,0-5-0.9-6.6-2.7
			c-1.6-1.8-2.4-4.4-2.4-7.7v-1.1c0-2.1,0.4-3.9,1.1-5.5c0.7-1.6,1.8-2.8,3.1-3.6c1.4-0.9,2.9-1.3,4.7-1.3c2.6,0,4.7,0.7,6.2,2
			c1.6,1.4,2.5,3.2,2.7,5.6h-5.1c0-1.3-0.4-2.2-1-2.8c-0.6-0.6-1.6-0.8-2.8-0.8c-1.3,0-2.2,0.5-2.8,1.4c-0.6,1-0.9,2.5-0.9,4.6v1.5
			c0,2.3,0.3,3.9,0.9,4.9c0.6,1,1.6,1.5,3,1.5c1.2,0,2.1-0.3,2.7-0.8c0.6-0.6,1-1.4,1-2.6H161.5z"/>
		<path class="st3" d="M181.8,45.5h-5.1v-8.9h-7.6v8.9H164V24.2h5.1v8.5h7.6v-8.5h5.1V45.5z"/>
		<path class="st3" d="M191.8,24.2l4.8,14.8l4.7-14.8h6.8v21.3h-5.2v-5l0.5-10.2l-5.2,15.2h-3.4l-5.2-15.2l0.5,10.2v5H185V24.2
			H191.8z"/>
		<path class="st3" d="M223.7,41.5h-7l-1.2,4h-5.5l7.8-21.3h4.8l7.9,21.3h-5.5L223.7,41.5z M217.9,37.6h4.6l-2.3-7.4L217.9,37.6z"/>
		<path class="st3" d="M243,39.8c0-0.8-0.3-1.3-0.8-1.8c-0.5-0.4-1.5-0.9-2.8-1.3c-1.3-0.4-2.4-0.9-3.3-1.3
			c-2.8-1.4-4.1-3.2-4.1-5.6c0-1.2,0.3-2.2,1-3.1c0.7-0.9,1.7-1.6,2.9-2.1c1.3-0.5,2.7-0.8,4.2-0.8c1.5,0,2.9,0.3,4.1,0.8
			c1.2,0.5,2.2,1.3,2.8,2.3c0.7,1,1,2.2,1,3.5H243c0-0.9-0.3-1.5-0.8-2c-0.5-0.5-1.3-0.7-2.2-0.7c-0.9,0-1.6,0.2-2.2,0.6
			c-0.5,0.4-0.8,0.9-0.8,1.5c0,0.5,0.3,1,0.9,1.5c0.6,0.4,1.6,0.9,3.1,1.4c1.5,0.5,2.7,1,3.6,1.5c2.3,1.3,3.5,3.2,3.5,5.5
			c0,1.9-0.7,3.3-2.1,4.4c-1.4,1.1-3.3,1.6-5.8,1.6c-1.7,0-3.3-0.3-4.7-0.9c-1.4-0.6-2.5-1.5-3.2-2.5c-0.7-1.1-1.1-2.3-1.1-3.7h5.2
			c0,1.1,0.3,2,0.9,2.5c0.6,0.5,1.5,0.8,2.9,0.8c0.8,0,1.5-0.2,2-0.5C242.8,41,243,40.5,243,39.8z"/>
		<path class="st3" d="M267.5,28.2h-6.4v17.3H256V28.2h-6.3v-4h17.8V28.2z"/>
		<path class="st3" d="M282.9,36.5h-8.1v5.1h9.5v4h-14.7V24.2h14.7v4h-9.6v4.5h8.1V36.5z"/>
		<path class="st3" d="M294.4,38h-2.8v7.5h-5.1V24.2h8.4c2.5,0,4.5,0.6,5.9,1.7c1.4,1.1,2.1,2.7,2.1,4.8c0,1.5-0.3,2.7-0.9,3.7
			c-0.6,1-1.5,1.8-2.8,2.4l4.5,8.6v0.2h-5.5L294.4,38z M291.6,34h3.3c1,0,1.7-0.3,2.2-0.8c0.5-0.5,0.7-1.2,0.7-2.2
			c0-0.9-0.2-1.6-0.7-2.2c-0.5-0.5-1.2-0.8-2.2-0.8h-3.3V34z"/>
	</g>
	<g>
		<g>
			<path class="st3" d="M158,60.7l-1.7,4.6h-1.1l4.9-13.4h1.2l5.1,13.4h-1.1l-1.7-4.6H158z M163.4,59.7c-1.5-4-2.3-5.9-2.5-6.8h0
				c-0.3,1-1.2,3.4-2.4,6.8H163.4z"/>
			<path class="st3" d="M175.7,62.5c-0.5,1.7-1.6,3.1-3.7,3.1c-2.4,0-4.1-1.8-4.1-5c0-2.6,1.4-5.1,4.2-5.1c2.4,0,3.4,1.7,3.6,3.1h-1
				c-0.3-1.1-1-2.2-2.6-2.2c-2,0-3.2,1.7-3.2,4.1c0,2.3,1.1,4.1,3.1,4.1c1.4,0,2.2-0.7,2.7-2.1H175.7z"/>
			<path class="st3" d="M184.6,63.5c0,0.8,0.1,1.5,0.1,1.8h-0.9c-0.1-0.2-0.1-0.7-0.2-1.5c-0.3,0.7-1.2,1.7-3.1,1.7
				c-2.2,0-3.2-1.4-3.2-2.9c0-2.1,1.6-3.1,4.5-3.1c0.8,0,1.4,0,1.8,0v-1c0-1-0.3-2.2-2.5-2.2c-1.9,0-2.2,1-2.4,1.8h-1
				c0.1-1.1,0.8-2.7,3.4-2.7c2.2,0,3.4,0.9,3.4,3V63.5z M183.7,60.4c-0.4,0-1.2,0-1.9,0c-2.1,0-3.5,0.6-3.5,2.2c0,1.2,0.9,2,2.2,2
				c2.7,0,3.1-1.8,3.1-3.9V60.4z"/>
			<path class="st3" d="M195.2,51.2v11.4c0,0.9,0,1.8,0,2.8h-0.9c0-0.2-0.1-1.1-0.1-1.6c-0.5,1.2-1.6,1.8-3.2,1.8c-2.5,0-4-2-4-4.9
				c0-3,1.6-5.1,4.2-5.1c1.9,0,2.7,0.8,3,1.4v-5.8H195.2z M188,60.6c0,2.6,1.4,4,3,4c2.5,0,3.2-1.7,3.2-4.4c0-2.5-0.6-3.9-3.1-3.9
				C189.3,56.4,188,57.9,188,60.6z"/>
			<path class="st3" d="M198.5,60.6c0,2.5,1.3,4,3.1,4c1.8,0,2.4-1,2.8-1.8h1c-0.4,1.3-1.4,2.7-3.8,2.7c-2.9,0-4-2.5-4-5
				c0-2.7,1.4-5.1,4.2-5.1c3,0,3.9,2.6,3.9,4.4c0,0.3,0,0.5,0,0.8H198.5z M204.6,59.8c0-1.9-1.1-3.4-2.9-3.4c-2,0-2.9,1.4-3.1,3.4
				H204.6z"/>
			<path class="st3" d="M208,58.2c0-0.8,0-1.7,0-2.5h0.9c0,0.3,0.1,1.2,0,1.7c0.4-1,1.3-1.9,2.9-1.9c1.3,0,2.4,0.7,2.8,1.9
				c0.5-1,1.4-1.9,3.1-1.9c1.5,0,3,0.8,3,3.5v6.3h-1v-6.2c0-1.3-0.5-2.7-2.2-2.7c-1.9,0-2.7,1.5-2.7,3.4v5.5h-0.9v-6.2
				c0-1.4-0.4-2.7-2.2-2.7c-1.9,0-2.8,1.7-2.8,3.6v5.3h-1V58.2z"/>
			<path class="st3" d="M223.5,55.7c1.9,5.5,2.8,7.8,3.1,8.8h0c0.4-1.2,1.2-3.4,3-8.8h1l-3.6,10.2c-1,2.8-1.7,3.5-3.4,3.5
				c-0.3,0-0.6,0-0.9-0.1v-1c0.3,0,0.6,0.1,0.9,0.1c1.4,0,1.8-0.7,2.5-2.6l-3.7-10H223.5z"/>
		</g>
		<g>
			<g>
				<rect x="236.9" y="60.3" class="st3" width="29" height="0.9"/>
			</g>
			<g>
				<rect x="121.9" y="60.3" class="st3" width="27" height="0.9"/>
			</g>
		</g>
	</g>
</g>
</svg>
