<?xml version="1.0" encoding="utf-8"?>
<!-- Generator: Adobe Illustrator 28.0.0, SVG Export Plug-In . SVG Version: 6.00 Build 0)  -->
<svg version="1.1" id="Layer_1" xmlns="http://www.w3.org/2000/svg" xmlns:xlink="http://www.w3.org/1999/xlink" x="0px" y="0px"
	 viewBox="0 0 2154.5 861.13" style="enable-background:new 0 0 2154.5 861.13;" xml:space="preserve">
<style type="text/css">
	.st0{fill:#FFFFFF;}
	.st1{fill:#055454;}
	.st2{fill:#043332;}
	.st3{fill:#FCFCFC;}
</style>
<g>
	<g>
		<polygon class="st0" points="212.87,334.19 957.73,334.19 936.31,522.34 234.43,522.34 		"/>
	</g>
	<g>
		<g>
			<path class="st0" d="M142.02,595.71c10.08-20.59,18.34-41,29.63-59.56c11.84-19.45,11.88-34.39-4.51-51.96
				c-17.66-18.93-31.77-41.17-48.42-63.28c28.73,0,56.36,0,85.32,0c5.69,40.96,11.43,82.33,17.32,124.72c242.31,0,484.05,0,727.32,0
				c5.84-41.84,11.64-83.47,17.48-125.32c28.67,0,56.16,0,85.69,0c-20.26,26.83-39.28,52.51-58.9,77.71
				c-5.6,7.19-7.05,12.64-2.38,21.45c13.08,24.66,24.74,50.06,36.91,75.05c-25.02,0-49.07,1.65-72.8-0.38
				c-37.15-3.18-61.41,7.76-79.96,43.78c-39.25,76.22-105.3,127.01-178.49,168.73c-17.56,10.01-24.72,6.12-25.13-13.13
				c-0.72-33.79-0.45-67.61,0.03-101.4c0.04-2.97,4.16-7.08,7.36-8.6c17.21-8.2,28.98-20.36,32.63-40.82c-83.99,0-167.18,0-252.01,0
				c3.04,19.02,13.29,32.33,30.39,39.08c8.84,3.49,10.06,8.29,9.93,16.29c-0.43,27.28-0.22,54.57-0.47,81.86
				c-0.06,6.08-0.62,12.23-1.66,18.23c-1.96,11.4-7.29,14.27-18.26,10.34c-1.91-0.68-3.83-1.46-5.55-2.5
				C404.08,764.08,342.12,714.1,299,643.92c-6.16-10.03-11.36-20.67-16.81-31.13c-5.81-11.16-14.53-16.79-27.43-16.69
				c-33.8,0.28-67.61,0.11-101.41,0.08C150.17,596.19,146.99,595.93,142.02,595.71z M458.7,631.32c84.6,0,168.18,0,252.19,0
				c0-15.11,0-29.43,0-43.75c-84.56,0-168.14,0-252.19,0C458.7,602.25,458.7,616,458.7,631.32z"/>
		</g>
		<g>
			<path class="st0" d="M578.44,687.01c4.78,0,8.75,0,13.17,0c0.38,1.85,0.96,3.37,0.96,4.88c0.07,52.51,0.05,105.02,0.14,157.52
				c0.01,5.73-0.42,11.82-7.8,10.4c-3-0.58-7.14-6.24-7.16-9.62c-0.43-52.91-0.27-105.83-0.21-158.74
				C577.55,690.3,578,689.15,578.44,687.01z"/>
		</g>
		<g>
			<path class="st0" d="M545.26,842.42c-11.42-1.17-15.07-6.59-14.89-17.76c0.68-41.47,0.28-82.96,0.28-124.44
				c0-4.01,0-8.02,0-12.83c5.23,0,9.49,0,14.61,0C545.26,738.61,545.26,790.07,545.26,842.42z"/>
		</g>
		<g>
			<path class="st0" d="M624.72,686.97c5.03,0,9.01,0,14.77,0c0,4.69,0,9,0,13.3c0,41.5-0.41,83,0.28,124.49
				c0.19,11.24-3.62,16.52-15.04,17.7C624.72,790.82,624.72,739.41,624.72,686.97z"/>
		</g>
		<g>
			<path class="st1" d="M458.7,631.32c0-15.32,0-29.06,0-43.75c84.05,0,167.63,0,252.19,0c0,14.32,0,28.64,0,43.75
				C626.88,631.32,543.3,631.32,458.7,631.32z"/>
		</g>
	</g>
	<g>
		<g>
			<path class="st0" d="M283.83,316.33c0-58.85-0.32-115.01,0.2-171.17c0.15-15.77,8.83-23.06,26.66-28.9
				c50.95-16.7,102.68-31.59,152.28-51.69c39.38-15.96,76.18-38.35,113.84-58.42c6.09-3.25,10.12-4.08,16.32-0.19
				c80.65,50.69,168.29,84.81,260.17,108.66c27.89,7.24,33.53,14.38,33.54,43.55c0.02,47.25,0.01,94.49,0.01,141.74
				c0,4.45,0,8.91,0,15.28c-5.49,0-10.21,0.26-14.88-0.04c-23.93-1.56-48-2.13-71.73-5.24c-21.83-2.87-32.12-13.96-32.32-36.06
				c-0.24-27.2,2.49-54.42,3.94-81.64c0.67-12.52,1.35-25.05,2.18-40.41c-7.38,4.55-12.73,7.85-18.07,11.15
				c-53.64,33.13-107.37,66.13-160.83,99.55c-7.23,4.52-12.52,4.66-19.83,0.08c-54.47-34.12-109.21-67.8-163.87-101.6
				c-4.09-2.53-8.27-4.93-13.49-8.03c0,12.26-0.53,23.33,0.11,34.33c1.38,23.57,3.71,47.09,5.01,70.66
				c2.02,36.55-7.16,49.16-42.52,53.76C335.66,314.92,310.35,314.85,283.83,316.33z M585.83,54.65c-1.01-0.55-2.02-1.1-3.02-1.65
				c-3.65,25.96-20.84,34.13-45.14,34.81c22.62,13.76,25.28,32.57,18.44,55.73c19.97-16.69,38.67-15.37,58.56-0.13
				c-8.31-23.75-3.41-41.88,20.15-55.63c-13.77-2.51-25.65-1.52-32.89-6.84C594.26,75.31,591.01,63.67,585.83,54.65z M590.74,256.98
				c2.35,0.11,3.22,0.44,3.68,0.14c45.59-29.62,91.18-59.24,136.63-89.08c2.32-1.52,4.96-4.93,4.85-7.33
				c-0.48-10.25-1.93-20.45-3.25-32.74C684.45,171.79,638.03,213.99,590.74,256.98z M576.97,258.01c0.53-0.67,1.06-1.34,1.59-2
				c-46.46-42.2-92.92-84.41-141-128.08c-1.31,12.27-2.77,21.85-3.09,31.46c-0.1,2.86,2.27,6.93,4.76,8.57
				C485.03,198.14,531.02,228.04,576.97,258.01z M593.16,246.39c0.61,0.64,1.22,1.28,1.83,1.92c26.57-26.08,53.17-52.13,79.69-78.26
				c14.69-14.47,15.56-19.32,7.19-39.82C652.07,169.26,622.61,207.82,593.16,246.39z M571.97,252.03c1.79-1.8,3.58-3.6,5.37-5.39
				c-29.56-38.69-59.11-77.37-88.67-116.06c-1.49,0.44-2.98,0.87-4.47,1.31c0.87,9.82-1.99,22.86,3.24,28.93
				C514.48,192.21,543.58,221.81,571.97,252.03z"/>
		</g>
		<g>
			<path class="st1" d="M585.83,54.65c5.18,9.02,8.43,20.65,16.1,26.29c7.24,5.32,19.11,4.34,32.89,6.84
				c-23.56,13.75-28.46,31.87-20.15,55.63c-19.89-15.24-38.59-16.56-58.56,0.13c6.84-23.16,4.18-41.98-18.44-55.73
				c24.3-0.68,41.49-8.84,45.14-34.81C583.81,53.55,584.82,54.1,585.83,54.65z"/>
		</g>
		<g>
			<path class="st1" d="M590.74,256.98c47.29-42.99,93.71-85.19,141.91-129.01c1.32,12.28,2.78,22.49,3.25,32.74
				c0.11,2.41-2.54,5.81-4.85,7.33c-45.45,29.83-91.04,59.46-136.63,89.08C593.96,257.42,593.09,257.09,590.74,256.98z"/>
		</g>
		<g>
			<path class="st1" d="M576.97,258.01c-45.95-29.96-91.94-59.86-137.75-90.05c-2.48-1.64-4.85-5.71-4.76-8.57
				c0.32-9.61,1.78-19.19,3.09-31.46c48.08,43.67,94.54,85.87,141,128.08C578.03,256.67,577.5,257.34,576.97,258.01z"/>
		</g>
		<g>
			<path class="st1" d="M593.16,246.39c29.45-38.57,58.9-77.13,88.71-116.16c8.38,20.5,7.5,25.35-7.19,39.82
				c-26.52,26.13-53.12,52.18-79.69,78.26C594.38,247.67,593.77,247.03,593.16,246.39z"/>
		</g>
		<g>
			<path class="st1" d="M571.97,252.03c-28.38-30.22-57.49-59.82-84.52-91.21c-5.23-6.07-2.37-19.11-3.24-28.93
				c1.49-0.44,2.98-0.87,4.47-1.31c29.56,38.69,59.11,77.37,88.67,116.06C575.55,248.44,573.76,250.24,571.97,252.03z"/>
		</g>
	</g>
	<g>
		<path class="st1" d="M329.39,380.82h-20.38v55.25h-16.37v-55.25h-20v-12.64h56.74V380.82z"/>
		<path class="st1" d="M378.4,407.26h-25.74v16.23h30.4v12.59h-46.77v-67.89h46.86v12.64h-30.49v14.31h25.74V407.26z"/>
		<path class="st1" d="M444.65,413.09c-0.22,4.72-1.49,8.9-3.82,12.52c-2.33,3.62-5.6,6.43-9.81,8.42
			c-4.21,1.99-9.02,2.98-14.43,2.98c-8.92,0-15.95-2.91-21.07-8.72c-5.13-5.81-7.69-14.02-7.69-24.62v-3.36
			c0-6.65,1.16-12.47,3.47-17.46c2.32-4.99,5.65-8.84,10-11.56c4.35-2.72,9.39-4.08,15.11-4.08c8.24,0,14.86,2.17,19.86,6.5
			c5,4.34,7.85,10.31,8.53,17.93h-16.32c-0.12-4.13-1.16-7.1-3.12-8.91c-1.96-1.8-4.94-2.7-8.95-2.7c-4.07,0-7.06,1.52-8.95,4.57
			c-1.9,3.05-2.89,7.91-2.98,14.59v4.8c0,7.24,0.91,12.42,2.73,15.53s4.95,4.66,9.4,4.66c3.76,0,6.64-0.89,8.63-2.66
			c1.99-1.77,3.05-4.58,3.17-8.44H444.65z"/>
		<path class="st1" d="M509.14,436.08h-16.27v-28.35h-24.11v28.35h-16.37v-67.89h16.37v26.95h24.11v-26.95h16.27V436.08z"/>
		<path class="st1" d="M540.98,368.19l15.15,47.23l15.11-47.23h21.54v67.89h-16.41v-15.85l1.59-32.45l-16.41,48.3h-10.82
			l-16.46-48.35l1.58,32.5v15.85h-16.37v-67.89H540.98z"/>
		<path class="st1" d="M642.58,423.39h-22.43l-3.92,12.68h-17.48l24.9-67.89h15.39l25.08,67.89h-17.58L642.58,423.39z
			 M624.07,410.76h14.59l-7.32-23.55L624.07,410.76z"/>
		<path class="st1" d="M704.08,418.03c0-2.39-0.85-4.26-2.54-5.59c-1.69-1.34-4.67-2.72-8.93-4.15c-4.26-1.43-7.74-2.81-10.44-4.15
			c-8.8-4.32-13.19-10.26-13.19-17.81c0-3.76,1.1-7.08,3.29-9.95c2.19-2.87,5.29-5.11,9.3-6.71c4.01-1.6,8.52-2.4,13.52-2.4
			c4.88,0,9.26,0.87,13.12,2.61c3.87,1.74,6.88,4.22,9.02,7.44s3.22,6.89,3.22,11.03h-16.32c0-2.77-0.85-4.91-2.54-6.43
			s-3.99-2.29-6.88-2.29c-2.92,0-5.23,0.65-6.92,1.94c-1.69,1.29-2.54,2.93-2.54,4.92c0,1.74,0.93,3.32,2.8,4.73
			c1.87,1.41,5.14,2.87,9.84,4.38c4.69,1.51,8.55,3.13,11.56,4.87c7.34,4.23,11,10.06,11,17.48c0,5.94-2.24,10.6-6.71,13.99
			c-4.47,3.39-10.61,5.08-18.42,5.08c-5.5,0-10.48-0.99-14.94-2.96c-4.46-1.97-7.82-4.68-10.07-8.11s-3.38-7.39-3.38-11.87h16.41
			c0,3.64,0.94,6.32,2.82,8.04c1.88,1.73,4.93,2.59,9.16,2.59c2.7,0,4.84-0.58,6.41-1.75C703.29,421.78,704.08,420.15,704.08,418.03
			z"/>
		<path class="st1" d="M782.13,380.82h-20.38v55.25h-16.37v-55.25h-20v-12.64h56.74V380.82z"/>
		<path class="st1" d="M831.13,407.26h-25.74v16.23h30.4v12.59h-46.77v-67.89h46.86v12.64h-30.49v14.31h25.74V407.26z"/>
		<path class="st1" d="M867.68,412.06h-8.86v24.01h-16.37v-67.89h26.72c8.05,0,14.34,1.79,18.88,5.36
			c4.54,3.57,6.81,8.62,6.81,15.14c0,4.72-0.96,8.63-2.87,11.74c-1.91,3.11-4.9,5.62-8.98,7.55l14.17,27.41v0.7h-17.53
			L867.68,412.06z M858.83,399.47h10.35c3.11,0,5.45-0.82,7.02-2.45c1.57-1.64,2.35-3.92,2.35-6.85c0-2.93-0.79-5.23-2.38-6.89
			c-1.59-1.67-3.92-2.5-6.99-2.5h-10.35V399.47z"/>
	</g>
	<g>
		<path class="st1" d="M474.4,483.73l-5.44,14.79h-3.36l15.71-42.78h3.91l16.38,42.78h-3.61l-5.56-14.79H474.4z M491.33,480.67
			c-4.77-12.71-7.21-18.82-8.07-21.7h-0.06c-1.04,3.24-3.79,10.82-7.64,21.7H491.33z"/>
		<path class="st1" d="M530.69,489.54c-1.47,5.38-5.01,9.72-11.86,9.72c-7.64,0-13.08-5.69-13.08-15.89
			c0-8.37,4.46-16.14,13.45-16.14c7.76,0,10.94,5.5,11.49,9.78h-3.12c-0.92-3.55-3.24-6.91-8.43-6.91c-6.48,0-10.15,5.5-10.15,13.14
			c0,7.27,3.42,13.14,9.84,13.14c4.46,0,7.15-2.26,8.74-6.84H530.69z"/>
		<path class="st1" d="M558.99,492.71c0,2.69,0.24,4.83,0.43,5.81h-2.93c-0.24-0.73-0.43-2.08-0.55-4.71
			c-1.04,2.26-3.73,5.44-10.02,5.44c-7.09,0-10.15-4.58-10.15-9.17c0-6.72,5.19-9.78,14.36-9.78c2.57,0,4.58,0,5.81,0v-3.12
			c0-3.06-0.92-7.15-7.88-7.15c-6.17,0-7.09,3.24-7.76,5.75h-3.06c0.37-3.36,2.45-8.56,10.88-8.56c6.97,0,10.88,2.93,10.88,9.66
			V492.71z M555.99,482.93c-1.16,0-3.97,0-5.99,0c-6.78,0-11,1.77-11,7.03c0,3.85,2.75,6.48,7.03,6.48c8.74,0,9.96-5.81,9.96-12.41
			V482.93z"/>
		<path class="st1" d="M592.66,453.47v36.24c0,2.93,0,5.75,0.06,8.8h-2.93c-0.12-0.73-0.18-3.61-0.18-5.13
			c-1.53,3.73-4.95,5.87-10.27,5.87c-7.95,0-12.71-6.48-12.71-15.65c0-9.41,5.2-16.38,13.51-16.38c6.11,0,8.56,2.63,9.47,4.58
			v-18.34H592.66z M569.87,483.48c0,8.37,4.34,12.9,9.6,12.9c8.07,0,10.27-5.56,10.27-13.87c0-7.89-1.9-12.41-9.72-12.41
			C573.96,470.1,569.87,474.93,569.87,483.48z"/>
		<path class="st1" d="M603.36,483.61c0.06,7.88,4.03,12.77,9.9,12.77c5.74,0,7.7-3.24,8.8-5.74h3.12
			c-1.28,4.03-4.52,8.62-12.04,8.62c-9.29,0-12.9-8.01-12.9-15.77c0-8.74,4.34-16.26,13.26-16.26c9.41,0,12.41,8.13,12.41,13.87
			c0,0.86,0,1.71-0.06,2.51H603.36z M622.73,480.92c-0.06-6.05-3.36-10.82-9.35-10.82c-6.29,0-9.17,4.4-9.84,10.82H622.73z"/>
		<path class="st1" d="M633.37,475.84c0-2.63,0-5.5-0.06-7.88h2.99c0.06,1.04,0.18,3.67,0.12,5.44c1.28-3.06,4.1-6.17,9.17-6.17
			c4.28,0,7.64,2.14,8.86,6.05c1.53-3.18,4.58-6.05,9.96-6.05c4.71,0,9.6,2.69,9.6,11.19v20.11h-3.06v-19.74
			c0-4.09-1.47-8.56-7.15-8.56c-5.93,0-8.62,4.77-8.62,10.7v17.6h-3v-19.68c0-4.46-1.34-8.62-6.97-8.62c-5.93,0-8.8,5.26-8.8,11.49
			v16.81h-3.06V475.84z"/>
		<path class="st1" d="M683,467.96c6.17,17.48,8.86,24.69,9.9,27.99h0.06c1.22-3.73,3.67-10.82,9.6-27.99h3.18l-11.49,32.33
			c-3.24,9.05-5.44,11.06-10.94,11.06c-1.1,0-1.83-0.06-2.81-0.18v-3.06c0.92,0.12,1.77,0.18,2.75,0.18c4.4,0,5.81-2.14,8.07-8.43
			l-11.67-31.91H683z"/>
	</g>
	<g>
		<g>
			<rect x="725.39" y="481.5" class="st2" width="172.74" height="4.89"/>
		</g>
		<g>
			<rect x="272.46" y="481.5" class="st2" width="172.74" height="4.89"/>
		</g>
	</g>
	<g>
		<path class="st3" d="M1055.5,295.18h-34.1v92.47h-27.39v-92.47h-33.48v-21.15h94.96V295.18z"/>
		<path class="st3" d="M1137.51,339.43h-43.07v27.16h50.88v21.07h-78.27V274.04h78.42v21.15h-51.03v23.96h43.07V339.43z"/>
		<path class="st3" d="M1248.39,349.18c-0.37,7.91-2.5,14.89-6.4,20.95c-3.9,6.06-9.38,10.76-16.43,14.08
			c-7.05,3.33-15.1,4.99-24.15,4.99c-14.93,0-26.69-4.86-35.27-14.59c-8.58-9.73-12.87-23.46-12.87-41.2v-5.62
			c0-11.13,1.94-20.87,5.81-29.22c3.87-8.35,9.45-14.8,16.74-19.35c7.28-4.55,15.71-6.83,25.28-6.83c13.78,0,24.87,3.63,33.24,10.89
			c8.37,7.26,13.14,17.26,14.28,30h-27.31c-0.21-6.92-1.95-11.89-5.23-14.9c-3.28-3.02-8.27-4.53-14.98-4.53
			c-6.82,0-11.81,2.55-14.98,7.65c-3.17,5.1-4.84,13.24-4.99,24.42v8.04c0,12.12,1.52,20.78,4.56,25.98c3.04,5.2,8.28,7.8,15.72,7.8
			c6.29,0,11.11-1.48,14.44-4.45c3.33-2.96,5.1-7.67,5.31-14.12H1248.39z"/>
		<path class="st3" d="M1356.31,387.65h-27.23v-47.44h-40.34v47.44h-27.39V274.04h27.39v45.1h40.34v-45.1h27.23V387.65z"/>
		<path class="st3" d="M1409.61,274.04l25.36,79.05l25.28-79.05h36.05v113.61h-27.47v-26.53l2.65-54.31l-27.47,80.84h-18.1
			l-27.55-80.92l2.65,54.39v26.53h-27.39V274.04H1409.61z"/>
		<path class="st3" d="M1579.64,366.43h-37.53l-6.56,21.22h-29.26l41.67-113.61h25.75l41.98,113.61h-29.42L1579.64,366.43z
			 M1548.66,345.28h24.42l-12.25-39.41L1548.66,345.28z"/>
		<path class="st3" d="M1682.56,357.45c0-4-1.42-7.13-4.25-9.36c-2.84-2.24-7.82-4.55-14.94-6.94c-7.13-2.39-12.95-4.71-17.48-6.95
			c-14.72-7.23-22.08-17.17-22.08-29.81c0-6.29,1.83-11.85,5.5-16.66c3.67-4.81,8.86-8.56,15.57-11.24
			c6.71-2.68,14.25-4.02,22.63-4.02c8.17,0,15.49,1.46,21.97,4.37c6.48,2.91,11.51,7.06,15.1,12.45c3.59,5.38,5.38,11.54,5.38,18.45
			h-27.31c0-4.63-1.42-8.22-4.25-10.77c-2.84-2.55-6.67-3.82-11.51-3.82c-4.89,0-8.75,1.08-11.59,3.24
			c-2.84,2.16-4.25,4.9-4.25,8.23c0,2.91,1.56,5.55,4.68,7.92c3.12,2.37,8.61,4.81,16.47,7.34c7.85,2.52,14.3,5.24,19.35,8.15
			c12.28,7.08,18.42,16.83,18.42,29.26c0,9.94-3.74,17.74-11.24,23.41c-7.49,5.67-17.77,8.51-30.82,8.51
			c-9.21,0-17.54-1.65-25.01-4.95c-7.47-3.3-13.08-7.83-16.85-13.58c-3.77-5.75-5.66-12.37-5.66-19.86h27.47
			c0,6.09,1.57,10.57,4.72,13.46c3.15,2.89,8.26,4.33,15.33,4.33c4.53,0,8.1-0.97,10.73-2.93S1682.56,360.99,1682.56,357.45z"/>
		<path class="st3" d="M1813.19,295.18h-34.1v92.47h-27.39v-92.47h-33.48v-21.15h94.96V295.18z"/>
		<path class="st3" d="M1895.2,339.43h-43.07v27.16H1903v21.07h-78.27V274.04h78.42v21.15h-51.03v23.96h43.07V339.43z"/>
		<path class="st3" d="M1956.38,347.47h-14.83v40.19h-27.39V274.04h44.71c13.47,0,24.01,2.99,31.6,8.96
			c7.59,5.98,11.39,14.42,11.39,25.33c0,7.9-1.6,14.45-4.8,19.64c-3.2,5.2-8.21,9.41-15.02,12.63l23.72,45.87v1.17h-29.34
			L1956.38,347.47z M1941.55,326.4h17.32c5.2,0,9.12-1.37,11.74-4.11c2.63-2.74,3.94-6.56,3.94-11.46c0-4.9-1.33-8.75-3.98-11.54
			c-2.65-2.79-6.55-4.19-11.71-4.19h-17.32V326.4z"/>
	</g>
	<g>
		<g>
			<path class="st3" d="M1244.51,483.1l-9.11,24.75h-5.63l26.29-71.6h6.55l27.41,71.6h-6.03l-9.31-24.75H1244.51z M1272.84,477.99
				c-7.98-21.28-12.07-31.51-13.5-36.31h-0.1c-1.74,5.42-6.34,18.11-12.79,36.31H1272.84z"/>
			<path class="st3" d="M1338.71,492.82c-2.46,9-8.39,16.27-19.85,16.27c-12.79,0-21.89-9.51-21.89-26.59
				c0-14.01,7.47-27.01,22.5-27.01c12.99,0,18.31,9.21,19.23,16.37h-5.22c-1.53-5.93-5.42-11.56-14.11-11.56
				c-10.85,0-16.98,9.21-16.98,21.99c0,12.17,5.73,21.99,16.47,21.99c7.47,0,11.97-3.79,14.63-11.46H1338.71z"/>
			<path class="st3" d="M1386.07,498.14c0,4.5,0.41,8.08,0.72,9.72h-4.91c-0.41-1.23-0.72-3.48-0.92-7.88
				c-1.74,3.78-6.24,9.1-16.78,9.1c-11.87,0-16.98-7.67-16.98-15.34c0-11.25,8.69-16.37,24.04-16.37c4.3,0,7.67,0,9.72,0v-5.22
				c0-5.11-1.53-11.97-13.2-11.97c-10.33,0-11.87,5.42-12.99,9.62h-5.11c0.61-5.63,4.09-14.32,18.21-14.32
				c11.66,0,18.21,4.91,18.21,16.16V498.14z M1381.06,481.77c-1.94,0-6.65,0-10.02,0c-11.36,0-18.41,2.97-18.41,11.76
				c0,6.45,4.6,10.85,11.76,10.85c14.63,0,16.67-9.72,16.67-20.77V481.77z"/>
			<path class="st3" d="M1442.43,432.47v60.66c0,4.91,0,9.62,0.1,14.73h-4.91c-0.21-1.23-0.31-6.04-0.31-8.59
				c-2.56,6.24-8.28,9.82-17.18,9.82c-13.3,0-21.28-10.84-21.28-26.19c0-15.75,8.69-27.41,22.61-27.41c10.23,0,14.32,4.4,15.85,7.67
				v-30.69H1442.43z M1404.28,482.69c0,14.01,7.26,21.59,16.06,21.59c13.5,0,17.18-9.31,17.18-23.22c0-13.2-3.17-20.77-16.26-20.77
				C1411.13,460.29,1404.28,468.37,1404.28,482.69z"/>
			<path class="st3" d="M1460.33,482.9c0.1,13.2,6.75,21.38,16.57,21.38c9.62,0,12.89-5.42,14.73-9.62h5.21
				c-2.15,6.75-7.57,14.42-20.15,14.42c-15.55,0-21.58-13.4-21.58-26.39c0-14.63,7.26-27.21,22.2-27.21
				c15.75,0,20.77,13.6,20.77,23.22c0,1.43,0,2.86-0.1,4.19H1460.33z M1492.76,478.4c-0.1-10.13-5.63-18.11-15.65-18.11
				c-10.54,0-15.34,7.37-16.47,18.11H1492.76z"/>
			<path class="st3" d="M1510.55,469.91c0-4.4,0-9.21-0.1-13.2h5.01c0.1,1.74,0.31,6.14,0.21,9.11c2.15-5.11,6.85-10.33,15.34-10.33
				c7.16,0,12.79,3.58,14.83,10.13c2.56-5.32,7.67-10.13,16.67-10.13c7.88,0,16.06,4.5,16.06,18.72v33.65h-5.11v-33.04
				c0-6.85-2.46-14.32-11.97-14.32c-9.92,0-14.42,7.98-14.42,17.9v29.46h-5.01v-32.94c0-7.47-2.25-14.42-11.66-14.42
				c-9.92,0-14.73,8.8-14.73,19.23v28.13h-5.11V469.91z"/>
			<path class="st3" d="M1593.61,456.71c10.33,29.26,14.83,41.33,16.57,46.85h0.1c2.05-6.24,6.14-18.11,16.06-46.85h5.32
				l-19.23,54.11c-5.42,15.14-9.11,18.51-18.31,18.51c-1.84,0-3.07-0.1-4.71-0.31v-5.11c1.53,0.2,2.97,0.31,4.6,0.31
				c7.37,0,9.72-3.58,13.5-14.11l-19.54-53.4H1593.61z"/>
		</g>
		<g>
			<g>
				<rect x="1664.57" y="481.03" class="st3" width="154.73" height="4.89"/>
			</g>
			<g>
				<rect x="1051.87" y="481.03" class="st3" width="143.78" height="4.89"/>
			</g>
		</g>
	</g>
</g>
</svg>
